<?xml version="1.0" encoding="UTF-8" standalone="no"?>
<!-- Created with Inkscape (http://www.inkscape.org/) -->

<svg
   width="720"
   height="720"
   viewBox="0 0 720 720"
   version="1.1"
   id="svg1"
   sodipodi:docname="Logo 4.svg"
   inkscape:version="1.3.2 (091e20ef0f, 2023-11-25)"
   xmlns:inkscape="http://www.inkscape.org/namespaces/inkscape"
   xmlns:sodipodi="http://sodipodi.sourceforge.net/DTD/sodipodi-0.dtd"
   xmlns:xlink="http://www.w3.org/1999/xlink"
   xmlns="http://www.w3.org/2000/svg"
   xmlns:svg="http://www.w3.org/2000/svg">
  <sodipodi:namedview
     id="namedview1"
     pagecolor="#ffffff"
     bordercolor="#000000"
     borderopacity="0.25"
     inkscape:showpageshadow="2"
     inkscape:pageopacity="0.0"
     inkscape:pagecheckerboard="0"
     inkscape:deskcolor="#d1d1d1"
     inkscape:document-units="px"
     showguides="false"
     inkscape:zoom="1.4142136"
     inkscape:cx="245.36605"
     inkscape:cy="433.10289"
     inkscape:window-width="1920"
     inkscape:window-height="1531"
     inkscape:window-x="20"
     inkscape:window-y="20"
     inkscape:window-maximized="0"
     inkscape:current-layer="layer1" />
  <defs
     id="defs1">
    <linearGradient
       id="linearGradient42"
       inkscape:collect="always">
      <stop
         style="stop-color:#ac001b;stop-opacity:1;"
         offset="0"
         id="stop42" />
      <stop
         style="stop-color:#769cff;stop-opacity:1;"
         offset="1"
         id="stop43" />
    </linearGradient>
    <linearGradient
       inkscape:collect="always"
       xlink:href="#linearGradient42"
       id="linearGradient43"
       x1="74.013672"
       y1="374.07519"
       x2="595.57227"
       y2="374.07519"
       gradientUnits="userSpaceOnUse" />
  </defs>
  <g
     inkscape:label="Layer 1"
     inkscape:groupmode="layer"
     id="layer1">
    <circle
       style="fill:none;fill-opacity:0;stroke:url(#linearGradient43);stroke-width:10;stroke-opacity:1"
       id="path2"
       cx="359.99997"
       cy="359.99997"
       r="337.88818" />
    <path
       style="fill:url(#linearGradient43);fill-opacity:1"
       d="m 429.05273,652.69531 c -5.52285,0 -10,4.47715 -10,10 0,5.52285 4.47715,10 10,10 5.52285,0 10,-4.47715 10,-10 0,-5.52285 -4.47715,-10 -10,-10 z"
       id="path9" />
    <path
       style="fill:url(#linearGradient43);fill-opacity:1"
       d="m 86.513672,369.64844 c -5.522847,0 -10,4.47715 -10,10 0,5.52285 4.477153,10 10,10 5.522847,0 10,-4.47715 10,-10 0,-5.52285 -4.477153,-10 -10,-10 z"
       id="path8" />
    <path
       style="fill:url(#linearGradient43);fill-opacity:1"
       d="m 595.07227,296.57422 c -5.52285,0 -10,4.47715 -10,10 0,5.52285 4.47715,10 10,10 5.52285,0 10,-4.47715 10,-10 0,-5.52285 -4.47715,-10 -10,-10 z"
       id="path6" />
    <path
       style="fill:url(#linearGradient43);fill-opacity:1"
       d="m 285.0781,58.936026 c -5.52285,0 -10,4.477153 -10,10 0,5.522842 4.47715,10.000002 10,10.000002 5.52285,0 10,-4.47716 10,-10.000002 0,-5.522847 -4.47715,-10 -10,-10 z"
       id="path3" />
    <path
       style="fill:none;fill-opacity:0;stroke:url(#linearGradient43);stroke-width:10;stroke-opacity:1"
       d="M 325.75391,620.39844 432.1871,561.76275 432.38477,415.38672 369.77473,344.34438 432.8114,279.85264 433.62308,162.65385 325.18686,107.11991 Z"
       id="path7"
       sodipodi:nodetypes="cccccccc" />
    <path
       style="fill:none;fill-opacity:0;stroke:url(#linearGradient43);stroke-width:10;stroke-opacity:1"
       d="m 576.8381,157.46194 -25.82228,-35.8643 -58.37791,-0.22277 -28.00039,38.96284 -0.39014,130.54253 103.1964,128.88879 -0.42136,147.48296 -34.5129,43.08429 -54.0525,-0.8853 -24.53627,-41.4348"
       id="path5" />
    <path
       style="fill:none;fill-opacity:0;stroke:url(#linearGradient43);stroke-width:10;stroke-opacity:1"
       d="m 166.16016,107.86328 -0.88672,504.92383 124.60156,-66.38086 3.75977,-124.02148 -84.4336,-94.82618 70.11328,-64.18554 0.71289,-102.97852 z"
       id="path1" />
  </g>
</svg>
